PathFileType	4	(X/Y/Z)	C:/Users/opensim2020/Desktop/walking_exp_matlab/subject01_walking12_straight_03.trc	
DataRate	CameraRate	NumFrames	NumMarkers	Units	OrigDataRate	OrigDataStartFrame	OrigNumFrames	
100.00	100.00	8	44	mm	100.00	1863	172	
Frame#	Time	LFHD			RFHD			LBHD			RBHD			C7			T10			CLAV			STRN			RBAK			LSHO			LUPA			LELB			LFRM			LWRA			LWRB			LFIN			RSHO			RUPA			RELB			RFRM			RWRA			RWRB			RFIN			LASI			RASI			LPSI			RPSI			LTHI			LKNE			LTIB			LANK			LHEE			LTOE			RTHI			RKNE			RTIB			RANK			RHEE			RTOE			*39			*40			*41			*42			*43			
		X1	Y1	Z1	X2	Y2	Z2	X3	Y3	Z3	X4	Y4	Z4	X5	Y5	Z5	X6	Y6	Z6	X7	Y7	Z7	X8	Y8	Z8	X9	Y9	Z9	X10	Y10	Z10	X11	Y11	Z11	X12	Y12	Z12	X13	Y13	Z13	X14	Y14	Z14	X15	Y15	Z15	X16	Y16	Z16	X17	Y17	Z17	X18	Y18	Z18	X19	Y19	Z19	X20	Y20	Z20	X21	Y21	Z21	X22	Y22	Z22	X23	Y23	Z23	X24	Y24	Z24	X25	Y25	Z25	X26	Y26	Z26	X27	Y27	Z27	X28	Y28	Z28	X29	Y29	Z29	X30	Y30	Z30	X31	Y31	Z31	X32	Y32	Z32	X33	Y33	Z33	X34	Y34	Z34	X35	Y35	Z35	X36	Y36	Z36	X37	Y37	Z37	X38	Y38	Z38	X39	Y39	Z39	X40	Y40	Z40	X41	Y41	Z41	X42	Y42	Z42	X43	Y43	Z43	X44	Y44	Z44	

87	0.860	-1069.55688	119.47369	1664.01648	-956.21289	134.15012	1664.88013	-1062.38831	2.34054	1622.49255	-942.20923	14.76160	1622.16699	-1030.53540	-39.13697	1423.47681	-1030.72803	-66.50499	1128.14148	-1024.03210	105.66352	1359.01392	-1034.81213	154.21170	1206.82556	-964.15759	-90.24970	1221.95715	-1186.45325	49.10260	1392.18762	-1282.94958	37.52538	1215.45276	-1304.94861	49.21381	1063.98022	-1329.85168	144.89423	996.04340	-1314.98230	276.13486	954.60309	-1336.13794	236.27797	915.42517	-1352.57764	314.44040	892.41809	-874.06036	34.44476	1377.53650	-788.39471	-48.64663	1180.20776	-791.43597	-65.14337	1058.97351	-762.93054	-72.53459	940.50397	-783.81934	-32.30037	804.17975	-745.02216	-73.72067	818.83368	-748.99353	-63.58186	732.56226	-1144.39722	105.58872	923.29755	-930.71259	123.05157	933.66516	-1079.75684	-75.50560	934.88971	-934.34656	-63.30507	939.98108	-1201.68982	49.13869	585.84937	-1196.86145	19.30295	453.81638	-1202.00183	-131.59094	339.64938	-1157.07996	-289.75809	185.03970	-1100.80212	-327.84000	206.66003	-1140.86365	-253.72861	40.59295	-873.50378	139.24687	605.04791	-907.02570	185.48303	454.78442	-901.89734	158.65877	278.90372	-955.01208	159.89426	75.22907	-1004.50769	111.53673	36.06962	-962.51648	301.24884	39.88411	-978.20374	123.43184	1699.71240	-3101.99390	1973.08459	1023.51868	-3140.84644	2012.44812	1021.94794						 
88	0.870	-1067.46704	129.77534	1665.28235	-954.01880	144.43571	1665.66614	-1060.33972	12.65846	1623.63074	-940.26813	25.15300	1622.81445	-1028.84167	-28.83545	1424.64600	-1029.18152	-55.81834	1129.21399	-1023.01483	116.23027	1360.13428	-1034.25195	164.73672	1207.93018	-961.98572	-79.25967	1223.09277	-1185.18762	58.95875	1393.42761	-1281.79150	46.16749	1216.69006	-1302.60608	55.67862	1064.72217	-1327.72168	150.02962	994.88989	-1313.09399	280.76828	951.01880	-1334.00415	239.95795	912.66351	-1350.15356	317.70847	887.75250	-872.69128	45.70667	1378.64673	-786.52509	-35.89020	1180.70422	-789.50861	-51.41301	1059.37244	-761.30707	-57.23673	940.61621	-782.26892	-15.07475	805.07111	-743.82318	-56.94275	818.86670	-748.01227	-45.51587	732.75366	-1143.05078	115.94929	924.37360	-929.23468	133.37173	934.88568	-1078.42639	-65.08846	935.62146	-933.18219	-52.87022	941.39087	-1201.81909	67.18266	585.80194	-1197.49646	39.70363	453.64957	-1203.12048	-112.56913	343.17358	-1157.52393	-272.95984	192.17148	-1102.15247	-310.03067	216.18416	-1140.29089	-244.78407	45.38713	-872.83563	144.90585	605.28461	-905.52582	190.69258	454.54565	-901.17279	161.25119	278.88104	-954.90027	160.11650	75.13830	-1004.30341	111.74603	36.19058	-962.38159	301.43927	39.52647	-975.86255	133.66798	1700.68567	-3101.99170	1973.12537	1023.51764	-3140.76099	2012.51501	1021.99750						 
89	0.880	-1065.46313	140.07402	1666.62366	-952.18866	154.80014	1666.62000	-1058.62134	22.98439	1624.80322	-938.45386	35.63685	1623.60999	-1027.24622	-18.28256	1425.73816	-1027.54578	-45.40441	1130.39783	-1022.12885	126.73277	1361.26416	-1033.68738	175.07410	1209.06030	-959.78796	-68.41628	1224.30603	-1184.11572	68.78525	1394.63965	-1280.65479	54.48207	1217.89282	-1300.34607	62.00985	1065.36621	-1325.55701	154.90953	993.42688	-1311.15442	285.02951	947.17212	-1331.89832	243.18427	909.53418	-1347.88477	320.51486	882.82562	-871.46252	57.10278	1379.78015	-784.51440	-23.19301	1181.34033	-787.73846	-37.78571	1059.65686	-759.70996	-41.79424	940.63110	-781.91846	1.88248	805.48944	-742.43512	-39.30130	818.87805	-746.91302	-26.80386	733.11896	-1141.89600	126.15002	925.35223	-927.85260	143.50444	935.81274	-1077.15161	-54.92356	936.14270	-931.98096	-42.76992	942.57294	-1201.91589	84.57834	586.27777	-1198.15735	59.88868	453.98578	-1204.48743	-92.98361	346.52267	-1157.48547	-255.54274	199.28175	-1102.94153	-291.52328	224.93381	-1140.54712	-233.16660	50.40016	-871.92450	150.65184	605.32056	-904.52393	195.25366	454.10150	-900.17920	163.72195	278.77734	-954.70203	160.31229	75.06392	-1004.16437	111.76226	36.40874	-962.21112	301.66150	39.31151	-973.46521	144.07918	1701.80225	-3101.80737	1973.20337	1023.52191	-3140.56226	2012.54211	1021.95953						 
90	0.890	-1063.85449	150.32307	1667.93005	-950.48041	165.19029	1667.69214	-1056.85657	33.35128	1626.01636	-936.77228	46.04782	1624.45593	-1025.70630	-7.79495	1426.96436	-1025.84521	-34.92557	1131.58325	-1021.38623	137.20020	1362.41333	-1033.27161	185.41379	1210.18030	-957.61707	-57.77124	1225.59741	-1183.11902	78.49861	1395.85449	-1279.60449	62.42303	1219.12000	-1298.12073	68.33051	1065.94128	-1323.46228	159.56419	991.85858	-1309.16614	288.95844	943.07483	-1329.81018	246.35428	906.50031	-1345.64661	322.88745	877.77911	-870.29980	68.45636	1380.80237	-782.45734	-10.34374	1182.13513	-785.94489	-24.09332	1059.91382	-758.04144	-26.17073	940.61475	-780.62982	19.68133	806.49506	-741.12299	-21.57205	818.89655	-745.84833	-7.58969	733.37878	-1140.93335	136.24078	926.28894	-926.52295	153.48314	936.61664	-1075.86829	-44.94043	936.45404	-930.68103	-32.87568	943.86554	-1202.02563	101.56699	587.36304	-1198.49133	79.78396	454.77286	-1205.49414	-72.90701	349.09100	-1157.06641	-237.58749	206.03001	-1102.25708	-273.12955	231.86885	-1141.95593	-218.55103	55.74791	-870.88507	156.56960	605.54034	-903.58978	199.51242	453.51663	-899.34039	166.21301	278.53183	-954.58380	160.54457	75.07841	-1004.29840	111.26060	36.73468	-962.08148	301.74216	39.11124	-971.92712	154.28090	1702.69653	-3101.89185	1973.14148	1023.45959	-3140.67603	2012.54407	1022.02863						 
91	0.900	-1062.33936	160.67076	1669.15393	-949.02533	175.60295	1668.64990	-1055.42090	43.61782	1627.18042	-935.31903	56.38778	1625.36975	-1024.18665	2.60379	1428.10205	-1024.15552	-24.59609	1132.71021	-1020.69849	147.57645	1363.49133	-1032.77637	195.54784	1211.23145	-955.54749	-47.30906	1226.94739	-1182.17029	88.16405	1397.02930	-1278.41150	70.03188	1220.26184	-1296.06482	74.62704	1066.57141	-1321.36414	164.02005	990.25903	-1307.13586	292.44641	938.80402	-1327.39075	248.87930	902.95569	-1343.07959	324.77069	872.37323	-869.27704	79.82716	1381.88306	-780.57715	2.54118	1182.81689	-784.11469	-10.38842	1060.13953	-756.36023	-10.26737	940.64844	-779.63495	38.03179	807.58331	-739.77075	-3.36618	819.00385	-744.60693	12.32103	733.90576	-1139.97925	146.12854	927.21503	-925.28394	163.27492	937.28333	-1074.65210	-35.14876	936.69946	-929.58130	-23.12822	944.76459	-1202.13611	117.99948	588.79553	-1198.79272	99.50349	456.13333	-1206.23291	-52.56134	351.53690	-1156.13647	-219.61267	212.04549	-1100.38586	-254.95293	237.14389	-1144.10706	-201.63864	61.24029	-869.94287	162.58292	605.86963	-902.82043	203.35242	453.07303	-898.60962	168.41695	278.47220	-954.45117	160.59148	75.09531	-1004.00519	111.50212	36.74571	-961.89075	301.84348	38.92046	-970.56195	164.25847	1703.63403	-3101.88159	1973.13110	1023.60095	-3140.73779	2012.56250	1022.02301						 
92	0.910	-1061.09827	170.95708	1670.29712	-947.81616	186.03938	1669.63354	-1054.09900	53.97042	1628.31360	-933.96857	66.92049	1626.37378	-1022.82001	13.10248	1429.23401	-1022.46320	-14.40793	1133.79797	-1020.13568	157.88371	1364.52759	-1032.30298	205.74783	1212.18555	-953.56537	-37.10254	1228.27197	-1181.39221	97.74374	1398.17664	-1277.11975	77.47243	1221.29272	-1294.19421	80.87515	1067.29321	-1319.30811	168.25401	988.74384	-1305.04480	295.56049	934.42731	-1325.07715	251.08112	899.48468	-1340.62439	326.27682	867.05219	-868.30731	90.94977	1382.90234	-778.69696	15.44649	1183.44690	-782.31995	3.45251	1060.33374	-754.72699	5.76096	940.68268	-778.52911	56.48437	808.68341	-738.44196	15.42890	819.29004	-743.40466	32.45768	734.56073	-1139.01086	156.04170	928.17609	-924.10797	172.88931	937.87939	-1073.50989	-25.41758	936.98456	-928.66437	-13.54729	945.64905	-1202.38245	134.20808	590.79297	-1198.94482	119.12429	458.01581	-1206.42322	-32.16324	353.74579	-1154.82935	-200.81709	217.34145	-1098.18555	-235.66612	241.07338	-1146.85974	-182.19626	66.20719	-869.12805	168.41098	606.00800	-901.61823	207.16293	452.63327	-898.14081	170.71729	278.34528	-954.25366	160.76059	75.13243	-1004.05420	111.59106	36.75271	-961.63782	301.97107	38.70826	-968.78741	175.13255	1704.99902	-3102.03076	1972.99829	1023.62604	-3140.80371	2012.56775	1022.08783						 
93	0.920	-1060.08691	181.22578	1671.32800	-946.72986	196.40309	1670.58154	-1052.95581	64.25622	1629.33398	-932.78699	77.34465	1627.32104	-1021.43372	23.38658	1430.31555	-1020.76093	-4.31234	1134.89209	-1019.66785	168.24382	1365.46277	-1031.86548	215.77524	1213.06641	-951.64685	-27.38112	1229.86914	-1180.57935	107.36719	1399.26477	-1275.70374	84.84137	1222.22351	-1292.19836	87.04135	1068.13684	-1317.30957	172.35559	987.37360	-1302.94250	298.33774	929.95563	-1322.84619	253.01553	896.16687	-1337.85156	327.34244	861.45776	-867.52075	101.97697	1383.74304	-777.01007	28.35011	1183.89526	-780.44147	17.32946	1060.56104	-753.07599	21.97173	940.79584	-777.60516	75.03449	809.85132	-736.96466	33.88483	819.45007	-742.26697	53.21748	735.30481	-1138.06323	165.89706	929.13641	-922.84894	182.32079	938.38348	-1072.46606	-15.76355	937.42218	-927.56329	-4.41139	946.56720	-1202.68677	150.12854	592.98395	-1198.75500	139.02831	460.37869	-1205.98730	-11.59859	356.09866	-1153.60083	-180.96959	221.85110	-1095.96472	-215.93121	244.08121	-1149.83813	-161.05659	70.42692	-868.39832	174.41675	606.18311	-900.75458	210.75116	452.24539	-897.68805	172.62234	278.26727	-954.16241	160.80933	75.13554	-1003.86768	111.93748	36.46791	-961.53674	302.09464	38.56617	-968.21021	185.00986	1705.67346	-3101.96387	1973.12390	1023.44537	-3140.67188	2012.49280	1022.02209						 
94	0.930	-1059.11072	191.59770	1672.27930	-945.86841	206.83965	1671.52673	-1051.94275	74.58965	1630.34314	-931.80365	87.76475	1628.33301	-1020.12634	33.82421	1431.32520	-1019.22632	5.57582	1135.94348	-1019.18469	178.46718	1366.28320	-1031.34668	225.78709	1213.83191	-949.91840	-17.32009	1231.19629	-1179.85645	116.90959	1400.31384	-1274.26221	92.17059	1223.10254	-1290.46057	93.11887	1068.93481	-1315.32190	176.28725	986.15533	-1300.84192	300.72147	925.51416	-1320.68567	254.56703	892.83795	-1335.38208	328.02490	856.07574	-866.71826	113.06401	1384.75183	-775.31238	41.37303	1184.50708	-778.50885	31.22687	1060.88623	-751.38123	38.51054	940.98889	-776.21832	94.44471	811.44385	-735.59833	53.71149	820.07874	-740.93146	74.30772	736.33051	-1137.04272	175.81404	930.13043	-921.58173	191.63374	938.88220	-1071.57202	-6.21386	938.02161	-926.76465	4.82890	947.38654	-1203.22083	165.91920	595.39679	-1198.72058	158.85956	462.94864	-1205.10034	8.96206	358.67319	-1152.12830	-160.35088	224.90070	-1093.48010	-195.27682	245.38498	-1152.67615	-138.53323	73.49432	-867.83710	180.55560	606.40686	-900.06934	213.98418	452.09454	-897.21313	174.15950	278.23270	-953.88788	160.87251	75.20200	-1004.20313	111.24943	37.27158	-961.20013	302.18295	38.68803	-967.29407	195.40126	1706.56677	-3101.91357	1973.06641	1023.63196	-3140.66309	2012.59729	1022.15521						 
